<svg id="svg" version="1.1" xmlns="http://www.w3.org/2000/svg" xmlns:xlink="http://www.w3.org/1999/xlink" width="400" height="409.40438871473356" viewBox="0, 0, 400,409.40438871473356"><g id="svgg"><path id="path0" d="M142.555 166.066 L 84.953 223.668 84.953 274.687 L 84.953 325.705 199.687 325.705 L 314.420 325.705 314.420 274.216 L 314.420 222.727 257.288 165.595 L 200.156 108.464 142.555 166.066 " stroke="none" fill="#fcfcfc" fill-rule="evenodd"></path><path id="path1" d="M142.319 165.752 L 84.483 223.668 142.398 165.831 C 174.252 134.021,200.313 107.959,200.313 107.916 C 200.313 107.697,196.092 111.906,142.319 165.752 M42.868 265.439 L 1.254 307.054 1.254 349.380 C 1.254 391.208,1.262 391.733,1.902 394.045 C 3.492 399.784,7.399 404.542,12.774 407.287 C 14.369 408.102,15.674 408.713,15.674 408.645 C 15.674 408.576,16.415 408.718,17.320 408.959 C 18.679 409.321,24.686 409.398,51.803 409.401 L 84.639 409.404 84.639 367.712 L 84.639 326.020 199.608 325.940 L 314.577 325.861 199.609 325.783 L 84.641 325.705 84.562 274.764 L 84.483 223.824 42.868 265.439 " stroke="none" fill="#fbc42c" fill-rule="evenodd"></path><path id="path2" d="M229.154 79.153 L 200.159 108.149 257.446 165.439 L 314.734 222.730 314.734 316.071 L 314.734 409.412 348.262 409.400 C 368.584 409.393,381.862 409.273,381.972 409.096 C 382.071 408.936,382.345 408.879,382.580 408.969 C 382.816 409.060,383.098 408.989,383.207 408.812 C 383.316 408.636,383.613 408.571,383.866 408.668 C 384.119 408.765,384.326 408.693,384.326 408.507 C 384.326 408.322,384.519 408.244,384.756 408.335 C 384.992 408.426,385.399 408.287,385.659 408.027 C 385.919 407.766,386.220 407.641,386.326 407.747 C 386.433 407.854,386.520 407.769,386.520 407.557 C 386.520 407.346,386.661 407.260,386.834 407.367 C 387.006 407.473,387.147 407.403,387.147 407.210 C 387.147 407.017,387.283 406.944,387.449 407.046 C 387.616 407.149,388.027 406.957,388.364 406.621 C 388.700 406.284,389.047 406.079,389.133 406.166 C 389.220 406.252,389.887 405.711,390.616 404.964 C 391.345 404.217,392.061 403.640,392.209 403.683 C 392.356 403.726,392.441 403.641,392.398 403.494 C 392.355 403.347,392.931 402.630,393.679 401.901 C 394.426 401.172,394.967 400.505,394.880 400.419 C 394.794 400.332,394.999 399.986,395.335 399.649 C 395.672 399.312,395.864 398.901,395.761 398.735 C 395.658 398.569,395.732 398.433,395.925 398.433 C 396.118 398.433,396.188 398.292,396.082 398.119 C 395.975 397.947,396.045 397.806,396.238 397.806 C 396.431 397.806,396.502 397.665,396.395 397.492 C 396.288 397.320,396.366 397.179,396.567 397.179 C 396.768 397.179,396.851 396.967,396.752 396.708 C 396.653 396.450,396.716 396.238,396.894 396.238 C 397.071 396.238,397.129 396.097,397.022 395.925 C 396.915 395.752,396.993 395.611,397.194 395.611 C 397.395 395.611,397.480 395.404,397.383 395.151 C 397.286 394.898,397.351 394.602,397.527 394.492 C 397.704 394.383,397.778 394.110,397.692 393.886 C 397.606 393.662,397.631 393.382,397.749 393.265 C 398.073 392.941,398.059 397.371,398.053 295.298 C 398.049 242.453,398.050 198.864,398.055 198.433 C 398.060 198.002,397.933 197.490,397.773 197.297 C 397.612 197.103,397.564 196.729,397.665 196.466 C 397.766 196.203,397.704 195.899,397.527 195.790 C 397.351 195.681,397.280 195.398,397.370 195.163 C 397.461 194.927,397.390 194.645,397.214 194.536 C 397.037 194.427,396.972 194.130,397.069 193.877 C 397.166 193.624,397.094 193.417,396.909 193.417 C 396.723 193.417,396.653 193.205,396.752 192.947 C 396.851 192.688,396.768 192.476,396.567 192.476 C 396.366 192.476,396.288 192.335,396.395 192.163 C 396.502 191.991,396.444 191.850,396.267 191.850 C 396.089 191.850,396.026 191.638,396.125 191.379 C 396.224 191.121,396.141 190.909,395.940 190.909 C 395.739 190.909,395.661 190.768,395.768 190.596 C 395.875 190.423,395.804 190.282,395.611 190.282 C 395.419 190.282,395.345 190.145,395.449 189.978 C 395.687 189.593,394.764 187.774,394.331 187.774 C 394.153 187.774,394.087 187.645,394.185 187.486 C 394.283 187.328,394.120 186.955,393.824 186.658 C 393.527 186.362,393.251 185.896,393.211 185.623 C 393.171 185.350,392.919 184.966,392.651 184.770 C 392.382 184.574,392.163 184.254,392.163 184.059 C 392.163 183.864,391.881 183.528,391.536 183.313 C 391.191 183.097,390.909 182.779,390.909 182.605 C 390.909 182.192,258.875 50.157,258.463 50.157 C 258.290 50.157,245.101 63.205,229.154 79.153 " stroke="none" fill="#fb4404" fill-rule="evenodd"></path><path id="path3" d="M194.828 0.442 C 192.534 0.969,189.864 2.128,187.862 3.467 C 186.106 4.642,10.076 180.451,7.874 183.229 C 4.996 186.860,3.055 190.761,1.788 195.455 L 1.112 197.962 1.019 252.429 C 0.968 282.386,1.013 306.897,1.119 306.897 C 1.225 306.897,59.152 249.038,129.845 178.321 L 258.378 49.745 235.380 26.826 C 211.050 2.579,211.116 2.638,206.531 1.030 C 203.691 0.034,197.877 -0.259,194.828 0.442 M398.274 295.611 C 398.274 347.422,398.310 368.617,398.354 342.712 C 398.398 316.806,398.398 274.416,398.354 248.511 C 398.310 222.606,398.274 243.801,398.274 295.611 M314.420 274.295 L 314.420 326.019 199.530 326.019 L 84.639 326.019 84.639 367.712 L 84.639 409.404 199.687 409.404 L 314.734 409.404 314.734 315.987 C 314.734 264.608,314.663 222.571,314.577 222.571 C 314.491 222.571,314.420 245.846,314.420 274.295 " stroke="none" fill="#fb8104" fill-rule="evenodd"></path><path id="path4" d="M142.397 165.910 L 84.638 223.670 84.718 274.766 L 84.798 325.862 84.876 274.765 L 84.953 223.668 142.555 166.066 L 200.156 108.464 257.366 165.596 L 314.577 222.727 257.367 165.439 C 225.902 133.930,200.157 108.150,200.157 108.150 C 200.156 108.150,174.164 134.142,142.397 165.910 M1.093 348.746 C 1.093 371.850,1.130 381.255,1.176 369.646 C 1.221 358.038,1.221 339.135,1.176 327.640 C 1.130 316.145,1.093 325.643,1.093 348.746 M7.053 403.448 C 7.902 404.310,8.668 405.016,8.754 405.016 C 8.840 405.016,8.216 404.310,7.367 403.448 C 6.518 402.586,5.752 401.881,5.666 401.881 C 5.580 401.881,6.204 402.586,7.053 403.448 " stroke="none" fill="#fce4c2" fill-rule="evenodd"></path></g></svg>